<svg width="600" height="30" xmlns="http://www.w3.org/2000/svg">
<g style="stroke:#2F6F1C; stroke-width: 2px;" fill="transparent">
  <polygon points="300,5 310,15 300,25 290,15" />
  <polygon points="300,5 310,15 300,25 290,15" transform="translate(5 0)" />
  <polygon points="300,5 310,15 300,25 290,15" transform="translate(-5 0)" />
  <polygon points="300,10 305,15 300,20 295,15" transform="translate(15 0)" />
  <polygon points="300,10 305,15 300,20 295,15" transform="translate(-15 0)" />
  <line x1="5" y1="15" x2="280" y2="15" />
  <line x1="320" y1="15" x2="595" y2="15" />
  
  <line x1="0" y1="10" x2="5" y2="15" />
  <line x1="0" y1="20" x2="5" y2="15" />
  <line x1="0" y1="10" x2="5" y2="15" transform="translate(5 0)" />
  <line x1="0" y1="20" x2="5" y2="15" transform="translate(5 0)" />
  
  <line x1="600" y1="10" x2="595" y2="15" />
  <line x1="600" y1="20" x2="595" y2="15" />
  <line x1="600" y1="10" x2="595" y2="15" transform="translate(-5 0)" />
  <line x1="600" y1="20" x2="595" y2="15" transform="translate(-5 0)" />
</g>
</svg>